<?xml version="1.0" encoding="UTF-8"?>
<svg id="Layer_2" data-name="Layer 2" xmlns="http://www.w3.org/2000/svg" xmlns:xlink="http://www.w3.org/1999/xlink" viewBox="0 0 219 219">
  <defs>
    <style>
      .cls-1 {
        fill: #d4ffd3;
      }

      .cls-2 {
        fill: url(#linear-gradient);
      }
    </style>
    <linearGradient id="linear-gradient" x1="5.25" y1="119.24" x2="200.34" y2="119.24" gradientUnits="userSpaceOnUse">
      <stop offset="0" stop-color="#000"/>
      <stop offset="1" stop-color="#0f9b0f"/>
    </linearGradient>
  </defs>
  <g id="Layer_1-2" data-name="Layer 1">
    <circle class="cls-1" cx="109.5" cy="109.5" r="109.5"/>
    <path class="cls-2" d="M125.58,160.91c-10.76,10.25-25.33,16.54-41.37,16.54-31.91,0-58.01-24.92-59.89-56.36h16.04c1.85,22.59,20.78,40.36,43.85,40.36,11.76,0,22.44-4.62,30.34-12.14l11.03,11.59Zm-29.95-78.67c-3.73-1.22-7.7-1.88-11.83-1.88H25.33c0,4.43,1.8,8.44,4.71,11.33h0c2.9,2.89,6.89,4.67,11.29,4.67h42.47c6,0,11.44,2.4,15.41,6.3l11.21-11.42c-4.12-4.05-9.17-7.16-14.78-9Zm3.74,51.14c-3.95,3.77-9.29,6.07-15.16,6.07-10.9,0-19.96-7.94-21.7-18.36h-16.13c1.82,19.27,18.06,34.36,37.82,34.36,10.16,0,19.38-3.98,26.2-10.48l-11.04-11.59ZM5.25,100.14v.41c0,8.61,6.98,15.59,15.58,15.59H62.37c.5-6.56,3.87-12.31,8.87-16H5.25ZM199.61,61.05c-7.04,0-14.09,.02-21.13,0-.66,0-.92,.26-1.15,.74-2.04,4.25-4.1,8.49-6.14,12.74-6.46,13.5-12.9,27.01-19.36,40.51-1.15,2.41-2.31,4.8-3.52,7.3-.65-1.34-1.22-2.58-1.83-3.8-2.62-5.25-5.29-10.48-7.87-15.75-4.25-8.71-8.43-17.45-12.66-26.17-.28-.58-.61-1.2-1.08-1.64-1.43-1.32-2.86-2.67-4.45-3.81-9.15-6.57-19.52-10.04-31.07-10.11-13.84-.09-27.68,0-41.52,.03-.37,0-.74,.03-1.24,.05,.33,1.45,.57,2.79,.94,4.1,1.88,6.6,8.33,11.29,15.66,11.33,7.49,.04,14.99,0,22.48,.04,1.77,.01,3.54,.14,5.29,.36,8.18,1.03,15.17,4.42,21.22,9.57,.93,.79,1.9,1.71,2.42,2.75,5.45,10.94,10.82,21.92,16.2,32.9,6.41,13.06,12.82,26.11,19.23,39.17,.13,.27,.33,.52,.58,.9,16.61-33.78,33.13-67.38,49.73-101.14-.41-.04-.57-.08-.74-.08Z"/>
  </g>
</svg>